<svg xmlns="http://www.w3.org/2000/svg" class="absolute sm:w-full -left-36 sm:inset-x-0 bg-cover bg-center text-gray-100 dark:text-gray-800" viewBox="0 0 2225 494" fill="none"><path d="M2123 174C2067.54 246.198 2064 364.643 1692.12 364.643C1426.36 364.643 1192 120.49 843.778 215.921C396.5 338.5 166 338.5 116 235.5" stroke="currentColor" stroke-opacity="0.5" stroke-width="257" data-selected="true" data-label-id="0"/><path d="M1938 286C1886.66 358.333 1883.38 477 1539.11 477C1293.07 477 1076.12 232.389 753.748 328C339.676 450.808 126.288 450.808 80 347.615" stroke="#F6F6F9"/><path fill-rule="evenodd" clip-rule="evenodd" d="M1709.54 11.609C1710.61 8.36959 1711.23 4.9556 1711.8 1.64269C1711.93 0.92903 1711.46 0.240342 1710.76 0.15755C1710.06 0.0234736 1709.4 0.50754 1709.28 1.16994C1708.72 4.38104 1708.14 7.69307 1707.11 10.7802C1706.89 11.438 1707.25 12.1737 1707.92 12.4094C1708.59 12.645 1709.32 12.2667 1709.54 11.609Z" fill="#2896FE" fill-opacity="0.05"/><path fill-rule="evenodd" clip-rule="evenodd" d="M1722.15 22.1404C1727.77 17.1026 1732.74 11.3673 1738.5 6.43856C1739.04 6.00043 1739.1 5.18148 1738.64 4.64717C1738.18 4.11284 1737.37 4.02527 1736.84 4.51466C1731.05 9.44267 1726.08 15.1773 1720.43 20.2144C1719.91 20.7043 1719.86 21.524 1720.34 22.0589C1720.81 22.5425 1721.62 22.6303 1722.15 22.1404Z" fill="#2896FE" fill-opacity="0.05"/><path fill-rule="evenodd" clip-rule="evenodd" d="M1742.43 32.9664C1739.34 32.9816 1736.25 32.9964 1733.16 33.0115C1732.45 32.9797 1731.88 33.5707 1731.88 34.2899C1731.88 35.0091 1732.46 35.5485 1733.17 35.5802C1736.26 35.5653 1739.36 35.5507 1742.45 35.5358C1743.16 35.5163 1743.73 34.9254 1743.72 34.206C1743.72 33.5379 1743.14 32.9469 1742.43 32.9664Z" fill="#2896FE" fill-opacity="0.05"/><path fill-rule="evenodd" clip-rule="evenodd" d="M896.44 407.313C899.292 409.184 902.429 410.666 905.48 412.08C906.138 412.382 906.924 412.108 907.185 411.454C907.495 410.816 907.2 410.048 906.591 409.762C903.633 408.394 900.586 406.968 897.87 405.177C897.293 404.792 896.488 404.953 896.086 405.54C895.685 406.127 895.862 406.928 896.44 407.313Z" fill="#E6F0F7"/><path fill-rule="evenodd" clip-rule="evenodd" d="M883.003 416.762C886.412 423.5 890.667 429.778 893.934 436.623C894.218 437.256 894.992 437.53 895.628 437.225C896.263 436.919 896.557 436.16 896.224 435.512C892.961 428.651 888.711 422.359 885.307 415.605C884.971 414.969 884.19 414.714 883.551 415.032C882.961 415.366 882.666 416.125 883.003 416.762Z" fill="#E6F0F7"/><path fill-rule="evenodd" clip-rule="evenodd" d="M867.294 433.546C868.08 430.557 868.866 427.568 869.652 424.578C869.866 423.904 869.443 423.197 868.748 423.013C868.053 422.829 867.382 423.248 867.168 423.923C866.381 426.917 865.593 429.91 864.806 432.904C864.641 433.594 865.065 434.297 865.761 434.477C866.409 434.642 867.13 434.235 867.294 433.546Z" fill="#E6F0F7"/></svg>