<?xml version="1.0" encoding="utf-8"?>
<svg xmlns="http://www.w3.org/2000/svg" fill="none" height="127" viewBox="0 0 608 127" width="608">
<path d="M63.5 0C28.4378 0 0 28.4378 0 63.5C0 98.5623 28.4378 127 63.5 127C98.5623 127 127 98.5623 127 63.5C127 28.4378 98.5989 0 63.5 0ZM63.5 117.082C33.9643 117.082 9.91844 93.0357 9.91844 63.5C9.91844 33.9643 33.9643 9.91845 63.5 9.91845C93.0357 9.91845 117.082 33.9643 117.082 63.5C117.082 93.0357 93.0723 117.082 63.5 117.082ZM87.3262 38.6856H39.6738C35.6478 38.6856 31.9513 40.8816 30.0481 44.4683C28.145 48.0184 28.3646 52.3006 30.5971 55.6677L54.4233 91.3888C56.4363 94.4265 59.8401 96.2565 63.5 96.2565C67.1599 96.2565 70.5637 94.4265 72.5767 91.3888L96.4029 55.6677C98.6355 52.3006 98.8551 48.0184 96.9519 44.4683C95.0487 40.8816 91.3522 38.6856 87.3262 38.6856ZM88.168 50.1412L64.3418 85.8622C63.9758 86.4112 63.0608 86.4112 62.6948 85.8622L38.8686 50.1412C38.6856 49.8484 38.649 49.4458 38.7954 49.1164C38.9784 48.787 39.3078 48.604 39.6738 48.604H87.2896C87.6556 48.604 87.985 48.787 88.168 49.1164C88.351 49.4458 88.351 49.8484 88.168 50.1412Z" fill="#00A6FF"/>
<path d="M166 56.1956V16.3518C166 13.7282 167.643 11.9984 170.123 11.9984H186.095C196.676 11.9984 202.471 16.4094 202.471 24.5973C202.471 29.8445 199.472 33.3618 193.908 35.034C201.116 36.6773 204.402 41.2614 204.402 46.9698C204.402 56.0515 198.636 60.5491 185.951 60.5491H170.123C167.643 60.5491 166 58.8192 166 56.1956ZM185.144 33.16C190.852 33.16 194.456 30.1616 194.456 25.4911C194.456 20.7052 191.313 18.2258 184.999 18.2258H173.64V33.16H185.144ZM185.432 54.3216C193.245 54.3216 196.474 51.9864 196.474 46.3644C196.474 41.2614 192.87 38.6955 185.662 38.6955H173.64V54.3216H185.432Z" fill="#00A6FF"/>
<path d="M209.765 42.4723C209.765 31.4302 217.578 23.5594 228.735 23.5594C239.777 23.5594 247.59 31.5167 247.59 42.6165C247.59 53.6586 239.777 61.5293 228.678 61.5293C217.491 61.5293 209.765 53.6586 209.765 42.4723ZM240.671 42.6165C240.671 35.1205 235.655 29.6427 228.678 29.6427C221.758 29.6427 216.598 35.0629 216.598 42.4723C216.598 49.9106 221.787 55.4461 228.678 55.4461C235.568 55.4461 240.671 49.9683 240.671 42.6165Z" fill="#00A6FF"/>
<path d="M252.376 42.4723C252.376 31.4302 260.189 23.5594 271.347 23.5594C282.389 23.5594 290.173 31.5167 290.173 42.6165C290.173 53.6586 282.36 61.5293 271.26 61.5293C260.103 61.5293 252.376 53.6586 252.376 42.4723ZM283.311 42.6165C283.311 35.1205 278.295 29.6427 271.318 29.6427C264.398 29.6427 259.238 35.0629 259.238 42.4723C259.238 49.9106 264.427 55.4461 271.318 55.4461C278.208 55.4461 283.311 49.9683 283.311 42.6165Z" fill="#00A6FF"/>
<path d="M297.208 57.3201V9.83609C297.208 9.60544 298.419 9 299.918 9C302.167 9 304.646 10.2109 304.646 15.3716V40.656L317.187 26.6155C318.687 24.7415 320.272 24.0784 321.598 24.0784C324.222 24.0784 325.721 26.6155 325.433 27.0191L312.286 41.4921L327.451 57.9255C327.682 58.3003 326.038 60.9239 323.386 60.9239C321.973 60.9239 320.532 60.3184 318.975 58.358L304.617 42.9048V57.3201C304.617 60.0301 303.176 60.8374 301.302 60.8374H300.494C298.534 60.8662 297.208 60.0301 297.208 57.3201Z" fill="#00A6FF"/>
<path d="M359.626 57.839L346.335 41.5497H341.001V57.32C341.001 59.4247 339.877 60.8374 337.628 60.8374H336.59C334.486 60.8374 333.361 59.4247 333.361 56.8588V16.3518C333.361 13.7282 335.005 11.9984 337.484 11.9984H351.294C363.143 11.9984 369.457 16.9572 369.457 26.5578C369.457 34.8033 364.354 40.0793 354.955 40.8289L369.14 57.7237C369.515 58.1561 367.872 60.8662 364.643 60.8662C362.653 60.8662 361.269 60.0301 359.626 57.839ZM340.944 35.4953H351.15C358.271 35.4953 361.644 32.1798 361.644 26.9326C361.644 21.3106 358.04 18.3699 350.919 18.3699H340.944V35.4953Z" fill="#00A6FF"/>
<path d="M374.82 42.703C374.82 31.7473 382.633 23.5594 393.271 23.5594C403.708 23.5594 410.598 30.9113 410.598 41.7227V42.3282C410.598 43.9138 410.079 44.4905 408.35 44.4905H381.71C382.229 51.1792 387.188 55.6767 394.021 55.6767C400.335 55.6767 403.477 52.909 405.351 49.68C405.495 49.5358 409.243 50.1989 409.243 53.3703C409.243 56.5128 403.708 61.5582 393.848 61.5582C382.46 61.5293 374.82 53.9469 374.82 42.703ZM381.768 39.4739H403.391C403.016 33.2465 399.181 29.1814 393.185 29.1814C387.246 29.1814 382.69 33.4772 381.768 39.4739Z" fill="#00A6FF"/>
<path d="M414.26 27.7687V27.2498C414.26 25.4623 415.183 24.482 417.489 24.482H420.113V18.9177C420.113 16.3518 421.381 15.4004 423.399 15.4004H424.149C426.109 15.4004 427.378 16.15 427.378 18.9177V24.4532H435.566C437.901 24.4532 438.708 25.3469 438.708 27.1633V27.6822C438.708 29.5562 437.815 30.5364 435.479 30.5364H427.349V48.7862C427.349 53.2838 428.618 55.4749 432.164 55.4749C434.499 55.4749 436.142 54.437 437.267 52.9378C437.497 52.7072 439.371 53.7739 439.371 56.0803C439.371 58.8481 436.287 61.5582 430.982 61.5582C423.543 61.5582 420.17 57.4354 420.17 49.6223V30.5653H417.547C415.183 30.5364 414.26 29.5562 414.26 27.7687Z" fill="#00A6FF"/>
<path d="M452.634 30.3923C454.19 25.9812 457.218 23.5594 461.773 23.5594C465.521 23.5594 467.712 25.3758 467.712 28.3742C467.712 31.2284 465.607 32.3528 465.463 32.2086C464.339 31.3149 462.897 30.6229 460.879 30.6229C455.027 30.6229 452.691 36.3314 452.691 44.6634V57.3489C452.691 60.059 451.279 60.8662 449.405 60.8662H448.568C446.608 60.8662 445.253 60.0301 445.253 57.3489V24.9145C445.253 24.6838 446.464 24.0784 447.963 24.0784C450.154 24.0784 452.547 25.2893 452.634 30.3923Z" fill="#00A6FF"/>
<path d="M470.566 42.703C470.566 31.7473 478.379 23.5594 489.018 23.5594C499.454 23.5594 506.345 30.9113 506.345 41.7227V42.3282C506.345 43.9138 505.826 44.4905 504.096 44.4905H477.457C477.976 51.1792 482.934 55.6767 489.767 55.6767C496.052 55.6767 499.224 52.909 501.098 49.68C501.242 49.5358 504.99 50.1989 504.99 53.3703C504.99 56.5128 499.426 61.5582 489.594 61.5582C478.235 61.5293 470.566 53.9469 470.566 42.703ZM477.543 39.4739H499.166C498.791 33.2465 494.957 29.1814 488.96 29.1814C483.021 29.1814 478.466 33.4772 477.543 39.4739Z" fill="#00A6FF"/>
<path d="M511.188 51.0926C511.188 42.7606 519.146 39.1568 535.435 38.8685H536.415V38.1189C536.415 32.6411 533.273 29.6427 527.478 29.6427C522 29.6427 518.771 32.4969 517.128 35.8124C517.128 35.8989 512.543 35.8124 512.543 32.2086C512.543 28.7489 517.791 23.5883 527.997 23.5883C538.203 23.5883 543.767 28.8354 543.767 38.0036V60.1454C543.767 60.5202 542.412 60.9815 541.057 60.9815C538.433 60.9815 536.559 59.54 536.473 55.2154C533.705 59.1075 528.977 61.4428 523.499 61.4428C515.773 61.3852 511.188 57.2624 511.188 51.0926ZM536.386 46.3068V43.539L534.368 43.5967C523.845 43.9715 518.454 45.932 518.454 50.8043C518.454 54.0334 520.991 56.0515 525.287 56.0515C531.745 56.0515 536.386 51.9864 536.386 46.3068Z" fill="#00A6FF"/>
<path d="M548.639 27.7687V27.2498C548.639 25.4623 549.533 24.482 551.868 24.482H554.492V18.9177C554.492 16.3518 555.761 15.4004 557.779 15.4004H558.528C560.489 15.4004 561.757 16.15 561.757 18.9177V24.4532H569.945C572.28 24.4532 573.088 25.3469 573.088 27.1633V27.6822C573.088 29.5562 572.194 30.5364 569.859 30.5364H561.7V48.7862C561.7 53.2838 562.968 55.4749 566.514 55.4749C568.85 55.4749 570.493 54.437 571.617 52.9378C571.848 52.7072 573.722 53.7739 573.722 56.0803C573.722 58.8481 570.637 61.5582 565.332 61.5582C557.894 61.5582 554.521 57.4354 554.521 49.6223V30.5653H551.897C549.533 30.5364 548.639 29.5562 548.639 27.7687Z" fill="#00A6FF"/>
<path d="M577.009 53.8027C577.009 51.4675 579.719 50.2854 579.95 50.4295C582.342 53.5144 586.408 55.8209 592.087 55.8209C597.19 55.8209 600.044 53.9469 600.044 50.9485C600.044 47.287 596.671 46.5951 590.732 45.3265C585.398 44.2022 578.047 42.5588 578.047 34.8899C578.047 28.1435 583.669 23.5594 592.462 23.5594C601.688 23.5594 606.33 27.4516 606.33 30.8536C606.33 33.1889 603.475 34.5439 603.331 34.3133C601.082 31.3149 597.334 29.2102 592.75 29.2102C587.647 29.2102 584.937 31.1707 584.937 34.1691C584.937 37.4558 588.08 38.2342 593.932 39.5028C599.497 40.7137 607.223 42.357 607.223 50.1701C607.223 57.0606 601.515 61.5005 592.231 61.5005C582.198 61.4717 577.009 57.2624 577.009 53.8027Z" fill="#00A6FF"/>
<path d="M174.64 113L166.44 83.2H171.44L178.08 109H176.84L183.72 83.2H188.64L195.52 109H194.24L200.92 83.2H205.88L197.72 113H192.4L185.48 87.6H186.88L179.92 113H174.64Z" fill="#5A687A"/>
<path d="M217.986 113.48C215.906 113.48 214 112.987 212.266 112C210.56 111.013 209.2 109.667 208.186 107.96C207.173 106.253 206.666 104.32 206.666 102.16C206.666 99.9733 207.173 98.04 208.186 96.36C209.2 94.6533 210.56 93.32 212.266 92.36C213.973 91.3733 215.88 90.88 217.986 90.88C220.12 90.88 222.026 91.3733 223.706 92.36C225.413 93.32 226.76 94.6533 227.746 96.36C228.76 98.04 229.266 99.9733 229.266 102.16C229.266 104.347 228.76 106.293 227.746 108C226.733 109.707 225.373 111.053 223.666 112.04C221.96 113 220.066 113.48 217.986 113.48ZM217.986 109.28C219.266 109.28 220.4 108.973 221.386 108.36C222.373 107.747 223.146 106.907 223.706 105.84C224.293 104.747 224.586 103.52 224.586 102.16C224.586 100.8 224.293 99.5866 223.706 98.52C223.146 97.4533 222.373 96.6133 221.386 96C220.4 95.3866 219.266 95.08 217.986 95.08C216.733 95.08 215.6 95.3866 214.586 96C213.6 96.6133 212.813 97.4533 212.226 98.52C211.666 99.5866 211.386 100.8 211.386 102.16C211.386 103.52 211.666 104.747 212.226 105.84C212.813 106.907 213.6 107.747 214.586 108.36C215.6 108.973 216.733 109.28 217.986 109.28Z" fill="#5A687A"/>
<path d="M233.679 113V91.36H237.999V95.72L237.599 95.08C238.079 93.6666 238.852 92.6533 239.919 92.04C240.986 91.4 242.266 91.08 243.759 91.08H245.079V95.2H243.199C241.706 95.2 240.492 95.6666 239.559 96.6C238.652 97.5066 238.199 98.8133 238.199 100.52V113H233.679Z" fill="#5A687A"/>
<path d="M248.171 113V82.72H252.691V113H248.171Z" fill="#5A687A"/>
<path d="M267.976 113.48C265.896 113.48 264.029 112.987 262.376 112C260.749 110.987 259.456 109.627 258.496 107.92C257.563 106.213 257.096 104.293 257.096 102.16C257.096 100.027 257.576 98.1066 258.536 96.4C259.496 94.6933 260.789 93.3466 262.416 92.36C264.043 91.3733 265.883 90.88 267.936 90.88C269.669 90.88 271.203 91.2266 272.536 91.92C273.869 92.6133 274.923 93.5733 275.696 94.8L275.016 95.84V82.72H279.496V113H275.216V108.6L275.736 109.44C274.989 110.747 273.923 111.747 272.536 112.44C271.149 113.133 269.629 113.48 267.976 113.48ZM268.416 109.28C269.669 109.28 270.789 108.973 271.776 108.36C272.789 107.747 273.576 106.907 274.136 105.84C274.723 104.747 275.016 103.52 275.016 102.16C275.016 100.8 274.723 99.5866 274.136 98.52C273.576 97.4533 272.789 96.6133 271.776 96C270.789 95.3866 269.669 95.08 268.416 95.08C267.163 95.08 266.029 95.3866 265.016 96C264.003 96.6133 263.216 97.4533 262.656 98.52C262.096 99.5866 261.816 100.8 261.816 102.16C261.816 103.52 262.096 104.747 262.656 105.84C263.216 106.907 263.989 107.747 264.976 108.36C265.989 108.973 267.136 109.28 268.416 109.28Z" fill="#5A687A"/>
<path d="M285.933 93.88V91.68C286.813 91.4666 287.493 91.08 287.973 90.52C288.453 89.9333 288.746 89.2266 288.853 88.4H286.733V83.2H291.333V86.6C291.333 88.5466 290.879 90.16 289.973 91.44C289.066 92.6933 287.719 93.5066 285.933 93.88Z" fill="#5A687A"/>
<path d="M305.898 113.48C303.684 113.48 301.738 112.933 300.058 111.84C298.404 110.747 297.244 109.28 296.578 107.44L300.058 105.8C300.644 107.027 301.444 108 302.458 108.72C303.498 109.44 304.644 109.8 305.898 109.8C306.964 109.8 307.831 109.56 308.498 109.08C309.164 108.6 309.498 107.947 309.498 107.12C309.498 106.587 309.351 106.16 309.058 105.84C308.764 105.493 308.391 105.213 307.938 105C307.511 104.787 307.071 104.627 306.618 104.52L303.218 103.56C301.351 103.027 299.951 102.227 299.018 101.16C298.111 100.067 297.658 98.8 297.658 97.36C297.658 96.0533 297.991 94.92 298.658 93.96C299.324 92.9733 300.244 92.2133 301.418 91.68C302.591 91.1466 303.911 90.88 305.378 90.88C307.351 90.88 309.111 91.3733 310.658 92.36C312.204 93.32 313.298 94.6666 313.938 96.4L310.458 98.04C310.031 97 309.351 96.1733 308.418 95.56C307.511 94.9466 306.484 94.64 305.338 94.64C304.351 94.64 303.564 94.88 302.978 95.36C302.391 95.8133 302.098 96.4133 302.098 97.16C302.098 97.6666 302.231 98.0933 302.498 98.44C302.764 98.76 303.111 99.0266 303.538 99.24C303.964 99.4266 304.404 99.5866 304.858 99.72L308.378 100.76C310.164 101.267 311.538 102.067 312.498 103.16C313.458 104.227 313.938 105.507 313.938 107C313.938 108.28 313.591 109.413 312.898 110.4C312.231 111.36 311.298 112.12 310.098 112.68C308.898 113.213 307.498 113.48 305.898 113.48Z" fill="#5A687A"/>
<path d="M327.719 113L329.719 106.04H324.919V102.04H330.839L333.119 94.12H328.319V90.12H334.279L336.279 83.2H340.879L338.879 90.12H346.079L348.039 83.2H352.639L350.679 90.12H355.479V94.12H349.519L347.239 102.04H352.039V106.04H346.079L344.119 113H339.519L341.479 106.04H334.319L332.319 113H327.719ZM335.439 102.04H342.639L344.919 94.12H337.719L335.439 102.04Z" fill="#5A687A"/>
<path d="M364.681 113V87.2H358.961V83.2H369.361V113H364.681Z" fill="#5A687A"/>
<path d="M383.377 113V83.2H394.217C396.217 83.2 397.977 83.5733 399.497 84.32C401.017 85.04 402.203 86.1066 403.057 87.52C403.937 88.9066 404.377 90.5733 404.377 92.52C404.377 94.5733 403.857 96.3333 402.817 97.8C401.803 99.2666 400.43 100.333 398.697 101L405.577 113H400.217L392.897 100L395.977 101.8H388.097V113H383.377ZM388.097 97.6H394.297C395.39 97.6 396.337 97.3866 397.137 96.96C397.937 96.5333 398.55 95.9466 398.977 95.2C399.43 94.4266 399.657 93.52 399.657 92.48C399.657 91.44 399.43 90.5466 398.977 89.8C398.55 89.0266 397.937 88.44 397.137 88.04C396.337 87.6133 395.39 87.4 394.297 87.4H388.097V97.6Z" fill="#5A687A"/>
<path d="M418.058 113.48C415.898 113.48 413.978 112.987 412.298 112C410.644 110.987 409.351 109.627 408.418 107.92C407.484 106.187 407.018 104.253 407.018 102.12C407.018 99.9333 407.484 98 408.418 96.32C409.378 94.64 410.658 93.32 412.258 92.36C413.858 91.3733 415.671 90.88 417.698 90.88C419.324 90.88 420.778 91.16 422.058 91.72C423.338 92.28 424.418 93.0533 425.298 94.04C426.178 95 426.844 96.1066 427.298 97.36C427.778 98.6133 428.018 99.9466 428.018 101.36C428.018 101.707 428.004 102.067 427.978 102.44C427.951 102.813 427.898 103.16 427.818 103.48H410.578V99.88H425.258L423.098 101.52C423.364 100.213 423.271 99.0533 422.818 98.04C422.391 97 421.724 96.1866 420.818 95.6C419.938 94.9866 418.898 94.68 417.698 94.68C416.498 94.68 415.431 94.9866 414.498 95.6C413.564 96.1866 412.844 97.04 412.338 98.16C411.831 99.2533 411.631 100.587 411.738 102.16C411.604 103.627 411.804 104.907 412.338 106C412.898 107.093 413.671 107.947 414.658 108.56C415.671 109.173 416.818 109.48 418.098 109.48C419.404 109.48 420.511 109.187 421.418 108.6C422.351 108.013 423.084 107.253 423.618 106.32L427.298 108.12C426.871 109.133 426.204 110.053 425.298 110.88C424.418 111.68 423.351 112.32 422.098 112.8C420.871 113.253 419.524 113.48 418.058 113.48Z" fill="#5A687A"/>
<path d="M441.789 113.24C439.522 113.24 437.762 112.6 436.509 111.32C435.256 110.04 434.629 108.24 434.629 105.92V95.44H430.829V91.36H431.429C432.442 91.36 433.229 91.0666 433.789 90.48C434.349 89.8933 434.629 89.0933 434.629 88.08V86.4H439.149V91.36H444.069V95.44H439.149V105.72C439.149 106.467 439.269 107.107 439.509 107.64C439.749 108.147 440.136 108.547 440.669 108.84C441.202 109.107 441.896 109.24 442.749 109.24C442.962 109.24 443.202 109.227 443.469 109.2C443.736 109.173 443.989 109.147 444.229 109.12V113C443.856 113.053 443.442 113.107 442.989 113.16C442.536 113.213 442.136 113.24 441.789 113.24Z" fill="#5A687A"/>
<path d="M448.64 113V91.36H452.96V95.72L452.56 95.08C453.04 93.6666 453.813 92.6533 454.88 92.04C455.947 91.4 457.227 91.08 458.72 91.08H460.04V95.2H458.16C456.667 95.2 455.453 95.6666 454.52 96.6C453.613 97.5066 453.16 98.8133 453.16 100.52V113H448.64Z" fill="#5A687A"/>
<path d="M473.292 113.48C471.132 113.48 469.212 112.987 467.532 112C465.879 110.987 464.585 109.627 463.652 107.92C462.719 106.187 462.252 104.253 462.252 102.12C462.252 99.9333 462.719 98 463.652 96.32C464.612 94.64 465.892 93.32 467.492 92.36C469.092 91.3733 470.905 90.88 472.932 90.88C474.559 90.88 476.012 91.16 477.292 91.72C478.572 92.28 479.652 93.0533 480.532 94.04C481.412 95 482.079 96.1066 482.532 97.36C483.012 98.6133 483.252 99.9466 483.252 101.36C483.252 101.707 483.239 102.067 483.212 102.44C483.185 102.813 483.132 103.16 483.052 103.48H465.812V99.88H480.492L478.332 101.52C478.599 100.213 478.505 99.0533 478.052 98.04C477.625 97 476.959 96.1866 476.052 95.6C475.172 94.9866 474.132 94.68 472.932 94.68C471.732 94.68 470.665 94.9866 469.732 95.6C468.799 96.1866 468.079 97.04 467.572 98.16C467.065 99.2533 466.865 100.587 466.972 102.16C466.839 103.627 467.039 104.907 467.572 106C468.132 107.093 468.905 107.947 469.892 108.56C470.905 109.173 472.052 109.48 473.332 109.48C474.639 109.48 475.745 109.187 476.652 108.6C477.585 108.013 478.319 107.253 478.852 106.32L482.532 108.12C482.105 109.133 481.439 110.053 480.532 110.88C479.652 111.68 478.585 112.32 477.332 112.8C476.105 113.253 474.759 113.48 473.292 113.48Z" fill="#5A687A"/>
<path d="M493.948 113.48C492.481 113.48 491.188 113.227 490.068 112.72C488.975 112.187 488.121 111.467 487.508 110.56C486.895 109.627 486.588 108.533 486.588 107.28C486.588 106.107 486.841 105.053 487.348 104.12C487.881 103.187 488.695 102.4 489.788 101.76C490.881 101.12 492.255 100.667 493.908 100.4L501.428 99.16V102.72L494.788 103.88C493.588 104.093 492.708 104.48 492.148 105.04C491.588 105.573 491.308 106.267 491.308 107.12C491.308 107.947 491.615 108.627 492.228 109.16C492.868 109.667 493.681 109.92 494.668 109.92C495.895 109.92 496.961 109.653 497.868 109.12C498.801 108.587 499.521 107.88 500.028 107C500.535 106.093 500.788 105.093 500.788 104V98.44C500.788 97.3733 500.388 96.5066 499.588 95.84C498.815 95.1466 497.775 94.8 496.468 94.8C495.268 94.8 494.215 95.12 493.308 95.76C492.428 96.3733 491.775 97.1733 491.348 98.16L487.588 96.28C487.988 95.2133 488.641 94.28 489.548 93.48C490.455 92.6533 491.508 92.0133 492.708 91.56C493.935 91.1066 495.228 90.88 496.588 90.88C498.295 90.88 499.801 91.2 501.108 91.84C502.441 92.48 503.468 93.3733 504.188 94.52C504.935 95.64 505.308 96.9466 505.308 98.44V113H500.988V109.08L501.908 109.2C501.401 110.08 500.748 110.84 499.948 111.48C499.175 112.12 498.281 112.613 497.268 112.96C496.281 113.307 495.175 113.48 493.948 113.48Z" fill="#5A687A"/>
<path d="M519.562 113.24C517.296 113.24 515.536 112.6 514.282 111.32C513.029 110.04 512.402 108.24 512.402 105.92V95.44H508.602V91.36H509.202C510.216 91.36 511.002 91.0666 511.562 90.48C512.122 89.8933 512.402 89.0933 512.402 88.08V86.4H516.922V91.36H521.842V95.44H516.922V105.72C516.922 106.467 517.042 107.107 517.282 107.64C517.522 108.147 517.909 108.547 518.442 108.84C518.976 109.107 519.669 109.24 520.522 109.24C520.736 109.24 520.976 109.227 521.242 109.2C521.509 109.173 521.762 109.147 522.002 109.12V113C521.629 113.053 521.216 113.107 520.762 113.16C520.309 113.213 519.909 113.24 519.562 113.24Z" fill="#5A687A"/>
<path d="M544.286 113.48C542.419 113.48 540.686 113.133 539.086 112.44C537.486 111.72 536.126 110.747 535.006 109.52C533.886 108.293 533.059 106.88 532.526 105.28L536.526 103.6C537.246 105.44 538.299 106.853 539.686 107.84C541.072 108.827 542.672 109.32 544.486 109.32C545.552 109.32 546.486 109.16 547.286 108.84C548.086 108.493 548.699 108.013 549.126 107.4C549.579 106.787 549.806 106.08 549.806 105.28C549.806 104.187 549.499 103.32 548.886 102.68C548.272 102.04 547.366 101.533 546.166 101.16L540.566 99.4C538.326 98.7066 536.619 97.6533 535.446 96.24C534.272 94.8 533.686 93.12 533.686 91.2C533.686 89.52 534.099 88.0533 534.926 86.8C535.752 85.52 536.886 84.52 538.326 83.8C539.792 83.08 541.459 82.72 543.326 82.72C545.112 82.72 546.739 83.04 548.206 83.68C549.672 84.2933 550.926 85.1466 551.966 86.24C553.032 87.3333 553.806 88.6 554.286 90.04L550.366 91.76C549.779 90.1866 548.859 88.9733 547.606 88.12C546.379 87.2666 544.952 86.84 543.326 86.84C542.339 86.84 541.472 87.0133 540.726 87.36C539.979 87.68 539.392 88.16 538.966 88.8C538.566 89.4133 538.366 90.1333 538.366 90.96C538.366 91.92 538.672 92.7733 539.286 93.52C539.899 94.2666 540.832 94.8266 542.086 95.2L547.286 96.84C549.659 97.56 551.446 98.6 552.646 99.96C553.846 101.293 554.446 102.96 554.446 104.96C554.446 106.613 554.006 108.08 553.126 109.36C552.272 110.64 551.086 111.653 549.566 112.4C548.046 113.12 546.286 113.48 544.286 113.48Z" fill="#5A687A"/>
<path d="M559.304 113V91.36H563.824V113H559.304ZM559.304 88.4V83.2H563.824V88.4H559.304Z" fill="#5A687A"/>
<path d="M578.469 113.24C576.202 113.24 574.442 112.6 573.189 111.32C571.935 110.04 571.309 108.24 571.309 105.92V95.44H567.509V91.36H568.109C569.122 91.36 569.909 91.0666 570.469 90.48C571.029 89.8933 571.309 89.0933 571.309 88.08V86.4H575.829V91.36H580.749V95.44H575.829V105.72C575.829 106.467 575.949 107.107 576.189 107.64C576.429 108.147 576.815 108.547 577.349 108.84C577.882 109.107 578.575 109.24 579.429 109.24C579.642 109.24 579.882 109.227 580.149 109.2C580.415 109.173 580.669 109.147 580.909 109.12V113C580.535 113.053 580.122 113.107 579.669 113.16C579.215 113.213 578.815 113.24 578.469 113.24Z" fill="#5A687A"/>
<path d="M595.089 113.48C592.929 113.48 591.009 112.987 589.329 112C587.676 110.987 586.382 109.627 585.449 107.92C584.516 106.187 584.049 104.253 584.049 102.12C584.049 99.9333 584.516 98 585.449 96.32C586.409 94.64 587.689 93.32 589.289 92.36C590.889 91.3733 592.702 90.88 594.729 90.88C596.356 90.88 597.809 91.16 599.089 91.72C600.369 92.28 601.449 93.0533 602.329 94.04C603.209 95 603.876 96.1066 604.329 97.36C604.809 98.6133 605.049 99.9466 605.049 101.36C605.049 101.707 605.036 102.067 605.009 102.44C604.982 102.813 604.929 103.16 604.849 103.48H587.609V99.88H602.289L600.129 101.52C600.396 100.213 600.302 99.0533 599.849 98.04C599.422 97 598.756 96.1866 597.849 95.6C596.969 94.9866 595.929 94.68 594.729 94.68C593.529 94.68 592.462 94.9866 591.529 95.6C590.596 96.1866 589.876 97.04 589.369 98.16C588.862 99.2533 588.662 100.587 588.769 102.16C588.636 103.627 588.836 104.907 589.369 106C589.929 107.093 590.702 107.947 591.689 108.56C592.702 109.173 593.849 109.48 595.129 109.48C596.436 109.48 597.542 109.187 598.449 108.6C599.382 108.013 600.116 107.253 600.649 106.32L604.329 108.12C603.902 109.133 603.236 110.053 602.329 110.88C601.449 111.68 600.382 112.32 599.129 112.8C597.902 113.253 596.556 113.48 595.089 113.48Z" fill="#5A687A"/>
</svg>